<svg width="374" height="120" viewBox="0 0 374 120" fill="none" xmlns="http://www.w3.org/2000/svg">
<path d="M77.3465 32.1813C80.4135 32.1712 83.4314 32.9255 86.1288 34.3717L86.6639 34.6705L91.6258 37.5465C91.7568 37.6224 91.8714 37.7157 91.9696 37.8209C91.9871 37.8308 92.0049 37.8402 92.0223 37.8502C93.7768 38.8534 95.2361 40.3015 96.2508 42.0494C97.2655 43.7973 97.8005 45.7832 97.8016 47.8043V56.7896C97.8016 56.8281 97.7986 56.8661 97.7958 56.9039V57.5543C97.7958 57.5733 97.7935 57.5921 97.7928 57.6109V58.9547C97.7904 62.728 96.8028 66.4356 94.9286 69.7105C93.0543 72.9854 90.3584 75.715 87.1063 77.6285L87.1044 77.6295L70.3641 87.4517C69.8991 87.7246 69.3235 87.7277 68.8563 87.4586L52.0272 77.7603C51.5626 77.4926 51.2763 76.9968 51.2762 76.4605V45.4586C51.2763 44.9272 51.5575 44.4351 52.0155 44.1656L68.0448 34.732L68.578 34.4293C71.2659 32.9652 74.2794 32.1914 77.3465 32.1813ZM77.3563 35.1813C74.7878 35.1897 72.2644 35.8381 70.0135 37.0641L69.5672 37.317L54.2762 46.316V75.5933L69.5985 84.4234L85.5858 75.0416C88.3874 73.3928 90.7104 71.0417 92.3251 68.2203C93.9398 65.3987 94.7906 62.2047 94.7928 58.9537V52.4312C94.777 51.6364 94.5629 50.8578 94.1649 50.1685C93.7512 49.4521 93.1558 48.8574 92.4393 48.4439C91.7228 48.0305 90.9101 47.8129 90.0829 47.8131C89.8725 47.8131 89.6631 47.8272 89.4559 47.8551L89.3885 59.3121C89.3852 61.6461 88.7734 63.9391 87.6131 65.9644C86.524 67.8654 84.9867 69.469 83.1385 70.6373L82.7655 70.8648C82.7611 70.8674 82.7562 70.8701 82.7518 70.8726L72.5018 76.7555C72.4819 76.7669 72.4605 76.7753 72.4403 76.7857C72.4241 76.7941 72.4079 76.8024 72.3915 76.8101C72.3633 76.8234 72.3351 76.8359 72.3065 76.8473C72.2903 76.8537 72.2741 76.8599 72.2577 76.8658C72.2262 76.877 72.1947 76.8871 72.1629 76.8961C72.1493 76.9 72.1357 76.9043 72.1219 76.9078C72.0898 76.9159 72.0576 76.9224 72.0253 76.9283C72.0067 76.9317 71.9882 76.9353 71.9696 76.9381C71.9445 76.9417 71.9195 76.9445 71.8944 76.9469C71.8704 76.9492 71.8463 76.9506 71.8221 76.9517C71.8 76.9527 71.7779 76.9537 71.7557 76.9537C71.7241 76.9538 71.6926 76.9527 71.661 76.9508C71.6515 76.9502 71.6421 76.9496 71.6327 76.9488C71.5912 76.9455 71.55 76.94 71.5087 76.9332C71.5037 76.9324 71.4989 76.9311 71.494 76.9303C71.456 76.9236 71.4184 76.9155 71.3807 76.9058C71.3657 76.902 71.3507 76.8985 71.3358 76.8941C71.3034 76.8847 71.2711 76.8746 71.2391 76.8629C71.227 76.8585 71.215 76.8539 71.203 76.8492C71.1685 76.8356 71.1343 76.8207 71.1004 76.8043C71.0915 76.8 71.0829 76.7951 71.0741 76.7906C71.0494 76.7781 71.0241 76.7666 70.9999 76.7525L61.4803 71.2252L61.4686 71.2174C61.4426 71.2019 61.4174 71.1855 61.3924 71.1685L61.3514 71.1422C61.3077 71.1105 61.2667 71.0761 61.2274 71.0406C61.2173 71.0315 61.2079 71.0217 61.1981 71.0123C61.1762 70.9914 61.1541 70.9708 61.1337 70.9488C61.1201 70.9343 61.1075 70.919 61.0946 70.9039C61.0191 70.8157 60.9546 70.7202 60.9022 70.6187C60.8705 70.5576 60.8434 70.494 60.8202 70.4283C60.8125 70.4065 60.8044 70.385 60.7977 70.3629C60.7926 70.3458 60.7886 70.3284 60.784 70.3111C60.7773 70.2855 60.7699 70.26 60.7645 70.234C60.76 70.2121 60.7573 70.1898 60.7538 70.1676C60.7498 70.1429 60.7448 70.1183 60.742 70.0933C60.7416 70.0895 60.7415 70.0855 60.7411 70.0816L60.7381 70.0406C60.7359 70.0114 60.7347 69.9821 60.7342 69.9527L60.7333 69.9283V50.4254C60.7333 50.4133 60.734 50.4012 60.7342 50.3892C60.735 50.3608 60.7368 50.3326 60.7391 50.3043C60.7412 50.2777 60.7444 50.2514 60.7479 50.2252C60.7506 50.2053 60.7532 50.1854 60.7567 50.1656C60.7622 50.134 60.7688 50.1028 60.7762 50.0719C60.7797 50.0575 60.7831 50.0431 60.787 50.0289C60.796 49.9958 60.807 49.9634 60.8182 49.9312C60.8229 49.9179 60.8269 49.9044 60.8319 49.8912C60.844 49.8593 60.8577 49.8282 60.8719 49.7974C60.8777 49.785 60.8834 49.7726 60.8895 49.7603C60.9046 49.7299 60.9203 49.6998 60.9374 49.6705C60.9452 49.657 60.9535 49.6437 60.9618 49.6305C60.9782 49.6042 60.9955 49.5785 61.0135 49.5533C61.0264 49.5354 61.0399 49.518 61.0536 49.5006C61.067 49.4834 61.0804 49.4663 61.0946 49.4498C61.1125 49.4289 61.131 49.4083 61.1503 49.3883C61.167 49.3708 61.1845 49.3541 61.202 49.3375C61.2177 49.3226 61.2334 49.3078 61.2499 49.2935C61.2729 49.2735 61.2969 49.2546 61.3211 49.2359C61.3335 49.2265 61.3456 49.2167 61.3583 49.2076C61.392 49.1833 61.427 49.1607 61.4628 49.1392C61.466 49.1373 61.4692 49.1353 61.4725 49.1334L61.4999 49.1168C61.5069 49.1129 61.5133 49.1079 61.5204 49.1041L80.5116 37.9195L80.5126 37.9186L80.8426 37.732C81.7981 37.2121 82.8197 36.8322 83.8758 36.6012C81.837 35.6615 79.6127 35.1739 77.3563 35.1813ZM73.2821 56.6646L73.2215 72.8824L81.246 68.2779L81.536 68.1012C82.9708 67.194 84.1641 65.9491 85.0096 64.4732C85.9116 62.8989 86.3869 61.1158 86.3885 59.3014V59.2945L86.4481 49.1705L73.2821 56.6646ZM86.2762 39.3365C84.7836 39.3455 83.3199 39.749 82.0331 40.5055L82.0321 40.5045L63.7333 51.2828V69.065L70.2215 72.8316L70.286 55.7848L70.2879 55.7428C70.2889 55.7141 70.2893 55.6854 70.2919 55.6568L70.2938 55.6314C70.3287 55.3007 70.4713 55.0021 70.6854 54.7711C70.7133 54.741 70.7427 54.7121 70.7733 54.6842C70.7772 54.6806 70.7801 54.676 70.784 54.6724C70.8016 54.6568 70.8204 54.6425 70.8387 54.6275C70.8594 54.6107 70.8806 54.5945 70.9022 54.5787C70.9141 54.5701 70.9261 54.5616 70.9383 54.5533C70.9676 54.5332 70.9974 54.5137 71.0282 54.4957C71.0333 54.4927 71.0386 54.4899 71.0438 54.4869L86.2342 45.8433C87.4045 45.1691 88.7312 44.8135 90.0819 44.8131C91.4357 44.8127 92.7657 45.1687 93.9383 45.8453C94.1915 45.9914 94.4351 46.152 94.6688 46.3248C94.4958 45.3536 94.1552 44.416 93.6561 43.5562C92.9067 42.2653 91.8289 41.1946 90.5331 40.4537C89.2373 39.713 87.7687 39.3275 86.2762 39.3365Z" fill="#10CBFF"/>
<path d="M123.899 78.5V44.3431H136.254C139.965 44.3431 143.156 45.0319 145.826 46.4094C148.525 47.7588 150.591 49.7127 152.025 52.2709C153.487 54.8292 154.218 57.8794 154.218 61.4216C154.218 64.9357 153.487 67.9718 152.025 70.5301C150.563 73.0883 148.483 75.0562 145.784 76.4337C143.114 77.8112 139.937 78.5 136.254 78.5H123.899ZM128.748 74.3674H136.254C140.387 74.3674 143.591 73.2289 145.869 70.9518C148.174 68.6746 149.326 65.4979 149.326 61.4216C149.326 57.3171 148.188 54.1404 145.911 51.8914C143.634 49.6143 140.415 48.4757 136.254 48.4757H128.748V74.3674ZM171.418 79.006C168.775 79.006 166.484 78.4719 164.544 77.4036C162.604 76.3072 161.1 74.761 160.032 72.765C158.992 70.769 158.472 68.4357 158.472 65.765C158.472 63.0943 158.992 60.789 160.032 58.8493C161.1 56.8814 162.59 55.3633 164.502 54.295C166.414 53.2267 168.649 52.6926 171.207 52.6926C173.653 52.6926 175.761 53.1846 177.532 54.1685C179.331 55.1525 180.723 56.544 181.707 58.3432C182.691 60.1424 183.183 62.279 183.183 64.7529V66.6505H163.026C163.167 69.2931 163.968 71.3594 165.43 72.8494C166.92 74.3112 168.902 75.0421 171.376 75.0421C173.09 75.0421 174.538 74.6907 175.719 73.9879C176.9 73.257 177.715 72.1887 178.165 70.7831H182.972C182.354 73.3976 181.018 75.4217 178.966 76.8554C176.942 78.2892 174.426 79.006 171.418 79.006ZM163.195 63.1927H178.629C178.404 61.1123 177.631 59.4959 176.309 58.3432C175.016 57.1906 173.301 56.6143 171.165 56.6143C169.056 56.6143 167.299 57.1906 165.894 58.3432C164.488 59.4959 163.588 61.1123 163.195 63.1927ZM191.055 78.5V56.8252H185.911V53.1986H191.097V47.3371C191.097 45.9034 191.491 44.8351 192.278 44.1323C193.065 43.4295 194.148 43.0781 195.525 43.0781H202.525V46.7046H195.736V53.1986H202.019V56.8252H195.778V78.5H191.055ZM207.769 78.5V58.0902H205.324V53.1986H210.384V57.9215H212.155C212.858 56.3754 213.94 55.1665 215.402 54.295C216.892 53.4235 218.635 52.9878 220.631 52.9878H222.697V57.036H220.378C217.848 57.036 215.894 57.781 214.516 59.271C213.139 60.7609 212.45 62.771 212.45 65.3011V78.5H207.769ZM233.778 78.9639C230.911 78.9639 228.648 78.261 226.989 76.8554C225.359 75.4217 224.543 73.5522 224.543 71.2469C224.543 68.8293 225.359 66.9598 226.989 65.6385C228.62 64.2891 230.967 63.6144 234.031 63.6144H242.676V62.4758C242.676 58.5681 240.525 56.6143 236.224 56.6143C232.71 56.6143 230.588 57.9356 229.857 60.5782H225.092C225.513 58.0762 226.708 56.1364 228.676 54.7589C230.672 53.3814 233.216 52.6926 236.308 52.6926C239.823 52.6926 242.507 53.5219 244.363 55.1806C246.246 56.8392 247.188 59.2288 247.188 62.3493V73.6084H249.465V78.5H244.405V74.6205H242.634C241.762 75.9699 240.568 77.0381 239.049 77.8253C237.531 78.5843 235.774 78.9639 233.778 78.9639ZM234.411 75.1687C235.929 75.1687 237.321 74.8594 238.586 74.2409C239.851 73.6225 240.849 72.7791 241.58 71.7108C242.311 70.6425 242.676 69.4758 242.676 68.2108V67.0722H234.327C230.784 67.0722 229.013 68.3935 229.013 71.0361C229.013 72.3012 229.491 73.3132 230.447 74.0723C231.403 74.8032 232.724 75.1687 234.411 75.1687ZM255.693 78.5V44.3431H268.049C271.759 44.3431 274.95 45.0319 277.621 46.4094C280.32 47.7588 282.386 49.7127 283.82 52.2709C285.282 54.8292 286.012 57.8794 286.012 61.4216C286.012 64.9357 285.282 67.9718 283.82 70.5301C282.358 73.0883 280.278 75.0562 277.579 76.4337C274.908 77.8112 271.731 78.5 268.049 78.5H255.693ZM260.542 74.3674H268.049C272.181 74.3674 275.386 73.2289 277.663 70.9518C279.968 68.6746 281.121 65.4979 281.121 61.4216C281.121 57.3171 279.982 54.1404 277.705 51.8914C275.428 49.6143 272.209 48.4757 268.049 48.4757H260.542V74.3674ZM292.459 78.5V44.3431H309.031C311.027 44.3431 312.756 44.6946 314.218 45.3974C315.68 46.1002 316.819 47.1122 317.634 48.4335C318.477 49.7267 318.899 51.2729 318.899 53.0721C318.899 54.9557 318.323 56.53 317.17 57.795C316.017 59.032 314.668 59.8332 313.122 60.1987V60.3673C314.274 60.536 315.427 60.9577 316.58 61.6324C317.732 62.3071 318.688 63.2489 319.447 64.4577C320.206 65.6385 320.586 67.1144 320.586 68.8855C320.586 70.8252 320.122 72.512 319.194 73.9458C318.295 75.3795 317.03 76.504 315.399 77.3193C313.768 78.1064 311.899 78.5 309.791 78.5H292.459ZM297.308 74.3674H308.778C310.971 74.3674 312.686 73.8614 313.923 72.8494C315.16 71.8373 315.778 70.3895 315.778 68.506C315.778 66.5943 315.16 65.1606 313.923 64.2047C312.686 63.2489 310.985 62.771 308.821 62.771H297.308V74.3674ZM297.308 58.8071H308.441C310.212 58.8071 311.59 58.3573 312.574 57.4577C313.586 56.5581 314.092 55.293 314.092 53.6625C314.092 51.9757 313.586 50.6966 312.574 49.8251C311.59 48.9255 310.212 48.4757 308.441 48.4757H297.308V58.8071Z" fill="black"/>
</svg>
